<svg xmlns="http://www.w3.org/2000/svg" xmlns:xlink="http://www.w3.org/1999/xlink" width="40" height="40"
  viewBox="0 0 40 40" fill="none">
  <path
    d="M0 20C0 31.046 8.954 40 20 40C31.046 40 40 31.046 40 20C40 8.954 31.046 0 20 0C8.954 0 0 8.954 0 20ZM29.6 13.744L29.6 12.3842L21.6 12.3842L21.6 8.68802L18.5279 8.68802C17.9681 8.68802 17.9041 9.18408 17.9041 9.18408L17.9041 12.3682L10.4001 12.3682L10.4001 13.728L17.9041 13.728L17.9041 15.936L11.76 15.936L11.76 17.1681L24.2082 17.1681C23.76 18.72 23.152 20.1922 22.4318 21.52C19.616 20.5922 18.0481 19.9521 14.6079 19.6321C8.09608 19.008 6.59214 22.5922 6.3521 24.784C6.00004 28.1282 8.9599 30.8482 13.376 30.8482C17.7921 30.8482 20.736 28.8002 23.536 25.4082C25.376 26.288 28.47 27.6802 32.816 29.5802L32.816 29.5822C27.7882 36.3 18.4251 37.9928 11.3635 33.46C4.30216 28.9276 1.94178 19.7099 5.95556 12.3413C9.96966 4.97268 18.9939 1.95695 26.6316 5.4313C34.2694 8.90596 37.9252 17.6907 35.008 25.5582C29.682 23.944 26.508 22.956 25.488 22.5922C26.6838 20.5176 27.5728 18.2812 28.1282 15.952L21.6 15.952L21.6 13.744L29.6 13.744ZM7.6961 24.544C7.93608 23.312 9.29614 21.712 11.9041 21.712C14.8961 21.712 17.5682 22.48 20.784 24.032C18.5121 26.992 15.744 28.736 12.864 28.736C8.19208 28.736 7.45614 25.776 7.6961 24.544Z"
    fill-rule="evenodd" fill="#4DA0FF">
  </path>
</svg>