<svg xmlns="http://www.w3.org/2000/svg" xmlns:xlink="http://www.w3.org/1999/xlink" width="32" height="32"
  viewBox="0 0 32 32" fill="none">
  <path fill="#CCCCCC" fill-opacity="0"
    d="M23.9502 8.32055L22.2733 8.41155C21.0861 8.47597 19.973 7.83326 19.4352 6.77295L18.6755 5.27522C17.5644 3.08457 14.4356 3.08457 13.3245 5.27522L12.5648 6.77295C12.027 7.83326 10.9139 8.47593 9.72674 8.4115L8.04983 8.32055C5.59713 8.18745 4.03268 10.8971 5.3743 12.9547L6.29156 14.3614C6.94092 15.3573 6.94092 16.6427 6.29156 17.6386L5.3743 19.0453C4.03268 21.1029 5.59713 23.8126 8.04983 23.6795L9.72674 23.5885C10.9139 23.5241 12.027 24.1667 12.5648 25.227L13.3245 26.7248C14.4356 28.9154 17.5644 28.9154 18.6755 26.7248L19.4352 25.227C19.973 24.1667 21.0861 23.5241 22.2733 23.5885L23.9502 23.6795C26.4029 23.8126 27.9673 21.1029 26.6257 19.0453L25.7084 17.6386C25.0591 16.6427 25.0591 15.3573 25.7084 14.3614L26.6257 12.9547C27.9673 10.8971 26.4029 8.18745 23.9502 8.32055Z">
  </path>
  <path fill="rgba(0, 0, 0, 1)"
    d="M24.0044 9.31908L22.3275 9.41008Q19.7231 9.5514 18.5433 7.22529L17.7837 5.72757C17.043 4.26714 14.957 4.26714 14.2163 5.72756L13.4567 7.2253Q12.2769 9.55136 9.67255 9.41004L7.99566 9.31908C6.36054 9.23035 5.31756 11.0368 6.21196 12.4085L7.12922 13.8152Q8.5538 16 7.12921 18.1848L6.21196 19.5915C5.31754 20.9632 6.36051 22.7697 7.99564 22.6809L9.67257 22.59Q12.2769 22.4486 13.4567 24.7747L14.2163 26.2724C14.957 27.7329 17.043 27.7329 17.7837 26.2724L18.5433 24.7747Q19.7231 22.4486 22.3274 22.59L24.0043 22.6809C25.6395 22.7697 26.6824 20.9632 25.788 19.5915L24.8708 18.1848Q23.4462 16 24.8708 13.8152L25.788 12.4085C26.6825 11.0368 25.6395 9.23035 24.0044 9.31908L24.0044 9.31908ZM23.896 7.32202C27.1663 7.14455 29.2522 10.7575 27.4634 13.5009L26.5461 14.9076Q25.8338 16 26.5461 17.0924L27.4634 18.4991C29.2522 21.2425 27.1662 24.8554 23.896 24.678L22.2191 24.587Q20.9169 24.5164 20.327 25.6794L19.5674 27.1771C18.0859 30.098 13.9141 30.098 12.4326 27.1771L11.673 25.6794Q11.0831 24.5164 9.7809 24.587L8.10401 24.678C4.83375 24.8554 2.74781 21.2425 4.53664 18.4991L5.4539 17.0924Q6.16619 16 5.4539 14.9076L4.53664 13.5009C2.74783 10.7575 4.83378 7.14455 8.10399 7.32201L9.78092 7.41297Q11.0831 7.48364 11.673 6.32061L12.4326 4.82289C13.9141 1.90203 18.0859 1.90203 19.5674 4.82288L20.327 6.32062Q20.9169 7.48368 22.2191 7.41302L23.896 7.32202L23.896 7.32202Z">
  </path>
  <circle cx="16" cy="16" r="4" stroke="rgba(0, 0, 0, 1)" stroke-width="2" fill="#CCCCCC" fill-opacity="0">
  </circle>
</svg>